# xmcd
#
# Track frame offsets: 
#        151
#        20735
#        37280
#        59256
#        78277
#        95289
#        115099
#        136594
#        154797
#        174470
#        188973
#        211475
#        229120
#        251072
#        260584
#        276002
#        295955
#        315084
#
# Disc length: 4411 seconds
#
# Revision: 0
# Processed by: cddbd v1.4PL0 Copyright (c) Steve Scherf et al.
# Submitted via: ExactAudioCopy v0.90b4
#
DISCID=fa113912
DTITLE=Анжелика Варум - В гостях у русской дискотеки
DYEAR=2001
DGENRE=Pop
TTITLE0=Зимняя вишня
TTITLE1=Привокзальное кафе
TTITLE2=Все в твоих руках
TTITLE3=Очаровашка
TTITLE4=Дождик
TTITLE5=Художник
TTITLE6=Другая женщина
TTITLE7=Четыре шага в облаках
TTITLE8=Дождливое такси
TTITLE9=Будешь рядом ты
TTITLE10=Это все для тебя
TTITLE11=В городе снов
TTITLE12=Ля-ля-фа
TTITLE13=I wanna be loved by you
TTITLE14=Колыбельная
TTITLE15=Прощай
TTITLE16=Февраль
TTITLE17=Королева
EXTD=
EXTT0=
EXTT1=
EXTT2=
EXTT3=
EXTT4=
EXTT5=
EXTT6=
EXTT7=
EXTT8=
EXTT9=
EXTT10=
EXTT11=
EXTT12=
EXTT13=
EXTT14=
EXTT15=
EXTT16=
EXTT17=
PLAYORDER=
